<svg width="33" height="33" viewBox="0 0 33 33" fill="none" xmlns="http://www.w3.org/2000/svg">
<g clip-path="url(#clip0_3757_59221)">
<mask id="mask0_3757_59221" style="mask-type:luminance" maskUnits="userSpaceOnUse" x="0" y="0" width="33" height="33">
<path d="M32.3984 0.57756H0.398438V32.5776H32.3984V0.57756Z" fill="white"></path>
</mask>
<g mask="url(#mask0_3757_59221)">
<mask id="mask1_3757_59221" style="mask-type:luminance" maskUnits="userSpaceOnUse" x="0" y="0" width="33" height="33">
<path d="M0.398438 0.57756H32.3984V32.5776H0.398438V0.57756Z" fill="white"></path>
</mask>
<g mask="url(#mask1_3757_59221)">
<path d="M15.3946 13.3568C17.3029 11.9777 19.0704 10.3305 20.1973 8.24465C20.952 6.84785 21.5001 7.05374 22.5935 7.79588C23.277 8.25978 25.1021 10.1772 24.6722 11.3805C23.9952 13.2749 19.7355 14.9965 16.1185 15.2691C15.7628 15.2959 15.4178 15.1356 15.2045 14.8499L15.1675 14.832C14.8178 14.3639 14.9209 13.699 15.3946 13.3568Z" fill="#3C4FB0"></path>
<path d="M17.6747 11.4751C16.9631 12.1573 16.1916 12.7807 15.3946 13.3568C14.9209 13.6992 14.8178 14.3641 15.1675 14.8324L15.2043 14.8499C15.4176 15.1356 15.7628 15.2961 16.1186 15.2693C18.8003 15.0669 21.8339 14.0682 23.5001 12.7931C20.8778 12.8866 18.502 11.8739 17.6747 11.4751Z" fill="#3348AC"></path>
<path d="M19.0875 14.4476C19.0875 14.4476 16.7821 11.3544 14.6262 8.68173C12.4258 5.95359 11.3827 5.75253 9.80567 7.42045C8.22888 9.08837 7.45917 11.2814 9.23677 12.3454C11.0144 13.4095 16.362 15.937 16.9639 15.592C17.5661 15.247 19.0875 14.4476 19.0875 14.4476Z" fill="#293C98"></path>
<path d="M16.1571 10.614C15.0308 12.4359 10.7353 12.6257 9.76172 12.6455C11.8877 13.8178 16.4125 15.908 16.9635 15.592C17.5657 15.247 19.0868 14.4476 19.0868 14.4476C19.0868 14.4476 17.7482 12.6514 16.1571 10.614Z" fill="#3C4FB0"></path>
<path d="M23.8684 30.3059H8.88089C7.48089 30.3059 6.3457 29.1707 6.3457 27.7707V16.9326C6.3457 15.5323 7.48089 14.3976 8.88089 14.3976H23.8684C25.2686 14.3976 26.4035 15.5323 26.4035 16.9326V27.7707C26.4035 29.1707 25.2686 30.3059 23.8684 30.3059Z" fill="#CDA813"></path>
<path d="M13.9795 30.3059H18.7701V14.3976H13.9795V30.3059Z" fill="#3C4FB0"></path>
<g opacity="0.2">
<path d="M6.28613 17.6583V21.0636L26.3437 22.5492V17.6583C26.3437 17.3577 26.2885 17.0708 26.1924 16.8034H6.43746C6.34133 17.0708 6.28613 17.3577 6.28613 17.6583Z" fill="#111840"></path>
</g>
<path d="M26.6126 19.1432H6.06581C5.16903 19.1432 4.44238 18.4163 4.44238 17.52V14.7671C4.44238 13.8706 5.16903 13.1439 6.06581 13.1439H26.6126C27.5091 13.1439 28.2358 13.8706 28.2358 14.7671V17.52C28.2358 18.4163 27.5091 19.1432 26.6126 19.1432Z" fill="#CDA813"></path>
<path d="M13.8145 19.1432H18.8648V13.1439H13.8145V19.1432Z" fill="#293C98"></path>
</g>
</g>
</g>
<defs>
<clipPath id="clip0_3757_59221">
<rect width="32" height="32" fill="white" transform="translate(0.398438 0.57756)"></rect>
</clipPath>
</defs>
</svg>